<mxfile host="app.diagrams.net" modified="2024-06-25T01:16:43.945Z" agent="Mozilla/5.0 (Macintosh; Intel Mac OS X 10_15_7) AppleWebKit/605.1.15 (KHTML, like Gecko) Version/17.5 Safari/605.1.15" version="24.6.2" etag="k18ypQDvgFTs0iR3ju_h" type="github">
  <diagram name="Page-1" id="MiVC8C7KuwYQD__vpaqQ">
    <mxGraphModel>
      <root>
        <mxCell id="0" />
        <mxCell id="1" parent="0" />
      </root>
    </mxGraphModel>
  </diagram>
</mxfile>
